<svg width="23" height="22" viewBox="0 0 23 22" fill="none" xmlns="http://www.w3.org/2000/svg">
<g id="Link" clip-path="url(#clip0_11_29)">
<path id="Vector" d="M16.6781 11.3996V18.7759H3.26677V5.36451H10.643L13.3253 2.68223H2.59621C2.0374 2.68223 1.56241 2.87782 1.17125 3.26898C0.780085 3.66014 0.584503 4.13513 0.584503 4.69394V19.4464C0.584503 20.0052 0.780085 20.4802 1.17125 20.8714C1.56241 21.2625 2.0374 21.4581 2.59621 21.4581H17.3487C17.9075 21.4581 18.3825 21.2625 18.7737 20.8714C19.1648 20.4802 19.3604 20.0052 19.3604 19.4464V8.71734L16.6781 11.3996ZM18.6898 -3.62396e-05L5.94904 12.7408V16.0936H9.30188L22.0427 3.3528C22.0427 2.34695 21.7353 1.53668 21.1206 0.921995C20.506 0.307308 19.6957 -3.62396e-05 18.6898 -3.62396e-05ZM9.30188 13.4113L8.29603 12.4055L18.3545 2.34695L19.3604 3.3528L9.30188 13.4113Z" fill="#2E8244"/>
</g>
<defs>
<clipPath id="clip0_11_29">
<rect width="21.4582" height="21.4582" fill="white" transform="matrix(1 0 0 -1 0.584503 21.4581)"/>
</clipPath>
</defs>
</svg>
