<svg width="23" height="23" viewBox="0 0 23 23" fill="none" xmlns="http://www.w3.org/2000/svg">
<g id="Link" clip-path="url(#clip0_11_7)">
<path id="Vector" d="M6.07237 7.36843C6.07237 6.62801 6.21207 5.9295 6.49147 5.27291C6.77087 4.63028 7.15505 4.06449 7.64401 3.57553C8.13297 3.08658 8.69876 2.7024 9.34138 2.42299C9.99798 2.14359 10.6965 2.00389 11.4369 2.00389C12.1773 2.00389 12.8758 2.14359 13.5324 2.42299C14.1751 2.7024 14.7409 3.08658 15.2298 3.57553C15.7188 4.06449 16.1029 4.63028 16.3823 5.27291C16.6617 5.9295 16.8014 6.62801 16.8014 7.36843C16.8014 8.10885 16.6617 8.80736 16.3823 9.46395C16.1029 10.1066 15.7188 10.6724 15.2298 11.1613C14.7409 11.6503 14.1751 12.0345 13.5324 12.3139C12.8758 12.5933 12.1773 12.733 11.4369 12.733C10.6965 12.733 9.99798 12.5933 9.34138 12.3139C8.69876 12.0345 8.13297 11.6503 7.64401 11.1613C7.15505 10.6724 6.77087 10.1066 6.49147 9.46395C6.21207 8.80736 6.07237 8.10885 6.07237 7.36843ZM16.8014 14.0741H6.07237C5.33195 14.0741 4.63344 14.2138 3.97684 14.4932C3.33421 14.7726 2.76842 15.1568 2.27947 15.6458C1.79051 16.1347 1.40633 16.7005 1.12693 17.3431C0.847526 17.9997 0.707825 18.6982 0.707825 19.4386V20.7798H22.166V19.4386C22.166 18.6982 22.0263 17.9997 21.7469 17.3431C21.4675 16.7005 21.0833 16.1347 20.5943 15.6458C20.1054 15.1568 19.5396 14.7726 18.897 14.4932C18.2404 14.2138 17.5419 14.0741 16.8014 14.0741Z" fill="#333333"/>
</g>
<defs>
<clipPath id="clip0_11_7">
<rect width="21.4582" height="21.4582" fill="white" transform="matrix(1 0 0 -1 0.707794 22.1209)"/>
</clipPath>
</defs>
</svg>
